<svg width="31" height="25" viewBox="0 0 31 25" fill="none" xmlns="http://www.w3.org/2000/svg">
<path d="M10.5513 -3.14154C12.1356 -2.52033 13.667 -1.69985 15.1104 -0.697703C15.2747 -0.586353 15.4625 -0.527748 15.6502 -0.527748C15.838 -0.527748 16.0257 -0.586353 16.19 -0.697703C17.6334 -1.69985 19.1648 -2.52619 20.7491 -3.1474C21.107 -3.28805 21.3476 -3.63968 21.3417 -4.02648C21.3417 -4.41327 21.1011 -4.75904 20.7373 -4.89384C17.5689 -6.09524 13.7315 -6.09524 10.569 -4.89384C10.211 -4.75904 9.9646 -4.40741 9.9646 -4.02648C9.9646 -3.64555 10.1876 -3.28219 10.5513 -3.14154Z" fill="#FFB548"/>
<path d="M24.1587 -3.13623C23.8594 -3.34135 23.478 -3.35893 23.1553 -3.17725C21.4009 -2.16924 19.7052 -1.01472 18.1034 0.257012C17.8922 0.426967 17.7631 0.678969 17.7513 0.948553C17.7396 1.21814 17.8452 1.48186 18.0388 1.6694C21.3599 4.82822 25.96 14.5157 27.0162 18.9696C24.7278 15.1017 19.6231 6.00032 16.2845 2.88838C15.9265 2.55434 15.3633 2.55434 15.0053 2.88838C11.6608 6.00032 6.5737 15.1076 4.28536 18.9814C5.34152 14.5274 9.92992 4.82822 13.2509 1.6694C13.4504 1.48186 13.5561 1.21814 13.5443 0.948553C13.5326 0.678969 13.4035 0.426967 13.1923 0.257012C11.5904 -1.01472 9.88885 -2.16924 8.14033 -3.17725C7.82935 -3.35893 7.43622 -3.34135 7.13698 -3.13623C3.05905 -0.32904 0.624023 4.28319 0.624023 9.20602C0.624023 12.8044 1.92075 16.2738 4.28536 18.9814C7.11351 22.2984 11.2501 24.209 15.6449 24.209C20.0397 24.209 24.1822 22.3043 27.0162 18.9755C29.369 16.2797 30.6658 12.8102 30.6658 9.20602C30.6658 4.28319 28.2307 -0.32904 24.1587 -3.13623Z" fill="#FFB548"/>
</svg>
