<svg width="31" height="25" viewBox="0 0 31 25" fill="none" xmlns="http://www.w3.org/2000/svg">
<path fill-rule="evenodd" clip-rule="evenodd" d="M15.7746 24.2089C24.0936 24.2089 30.8375 17.4932 30.8375 9.20892C30.8375 0.924652 24.0936 -5.79108 15.7746 -5.79108C7.45558 -5.79108 0.71167 0.924652 0.71167 9.20892C0.71167 10.7369 0.941106 12.2116 1.36754 13.6006C1.47636 13.6201 1.6523 13.6647 1.90866 13.7395L1.50834 7.46697C1.50834 7.35198 1.7031 7.29669 1.88153 7.24603C1.97946 7.21823 2.07247 7.19182 2.12567 7.15771C2.27094 7.06625 5.26258 8.15404 5.42239 8.22625L9.248 9.9495C10.2359 9.32855 11.4175 9.07824 12.5797 9.24672L16.0566 5.02524C16.1002 1.65576 18.8604 -1.05908 22.2551 -1.06389C25.4269 -1.0302 28.0564 1.37657 28.3567 4.51019C28.6763 7.89893 26.1775 10.9026 22.7684 11.2251L16.9767 15.3407C16.6232 17.1457 15.3254 18.6235 13.5724 19.2108C10.8848 20.1157 7.96472 18.6813 7.05917 16.0049L5.04467 15.3407C4.89531 15.2934 2.15386 14.1577 1.41129 13.7406C3.34051 19.8099 9.04168 24.2089 15.7746 24.2089ZM25.3546 5.09735C25.3546 6.79876 23.967 8.17802 22.2553 8.17802C20.5436 8.17802 19.156 6.79876 19.156 5.09735C19.156 3.39595 20.5436 2.01669 22.2553 2.01669C23.967 2.01669 25.3546 3.39595 25.3546 5.09735ZM24.3236 5.09737C24.3236 6.23253 23.3978 7.15276 22.2557 7.15276C21.1137 7.15276 20.1879 6.23253 20.1879 5.09737C20.1879 3.96222 21.1137 3.04199 22.2557 3.04199C23.3978 3.04199 24.3236 3.96222 24.3236 5.09737ZM10.5804 17.1121C10.9969 17.3142 11.4569 17.4201 11.9218 17.4201C12.2753 17.4201 12.6191 17.3624 12.9581 17.2516C13.7377 16.9821 14.3721 16.4189 14.7304 15.6824C15.4761 14.1469 14.8272 12.3081 13.2873 11.5669C13.0259 11.4417 12.7208 11.5476 12.5949 11.8027C12.469 12.0627 12.5755 12.3659 12.8322 12.4911C12.8661 12.5055 12.9 12.5199 12.9338 12.5392C13.9508 13.0591 14.343 14.2961 13.82 15.307C13.297 16.3178 12.0477 16.7077 11.0356 16.1879C10.7741 16.0627 10.469 16.1686 10.3431 16.4237C10.2172 16.6837 10.3238 16.9869 10.5804 17.1121Z" fill="#FFB548"/>
</svg>
